<?xml version="1.0" encoding="utf-8"?>
<!-- Generator: Adobe Illustrator 17.0.0, SVG Export Plug-In . SVG Version: 6.00 Build 0)  -->
<!DOCTYPE svg PUBLIC "-//W3C//DTD SVG 1.1//EN" "http://www.w3.org/Graphics/SVG/1.1/DTD/svg11.dtd">
<svg version="1.1" id="Calque_1" xmlns="http://www.w3.org/2000/svg" xmlns:xlink="http://www.w3.org/1999/xlink" x="0px" y="0px"
	 width="64px" height="64px" viewBox="0 0 64 64" enable-background="new 0 0 64 64" xml:space="preserve">
<path d="M32,60C16.561,60,4,47.439,4,32S16.561,4,32,4v6c-12.131,0-22,9.869-22,22s9.869,22,22,22V60z"/>
<path d="M32,24.57c-5.663,0-10.27-4.607-10.27-10.27S26.337,4.03,32,4.03c5.663,0,10.27,4.607,10.27,10.27S37.663,24.57,32,24.57z
	 M32,10.03c-2.354,0-4.27,1.916-4.27,4.27s1.916,4.27,4.27,4.27c2.354,0,4.27-1.916,4.27-4.27S34.354,10.03,32,10.03z"/>
<path d="M32.245,59.956c-5.663,0-10.27-4.606-10.27-10.27c0-5.662,4.607-10.269,10.27-10.269c5.663,0,10.27,4.606,10.27,10.269
	C42.515,55.35,37.908,59.956,32.245,59.956z M32.245,45.418c-2.354,0-4.27,1.915-4.27,4.269c0,2.354,1.916,4.27,4.27,4.27
	c2.354,0,4.27-1.915,4.27-4.27C36.515,47.333,34.6,45.418,32.245,45.418z"/>
</svg>
