<?xml version="1.0" encoding="utf-8"?>
<!-- Generator: Adobe Illustrator 17.0.0, SVG Export Plug-In . SVG Version: 6.00 Build 0)  -->
<!DOCTYPE svg PUBLIC "-//W3C//DTD SVG 1.1//EN" "http://www.w3.org/Graphics/SVG/1.1/DTD/svg11.dtd">
<svg version="1.1" id="Calque_1" xmlns="http://www.w3.org/2000/svg" xmlns:xlink="http://www.w3.org/1999/xlink" x="0px" y="0px"
	 width="64px" height="64px" viewBox="0 0 64 64" enable-background="new 0 0 64 64" xml:space="preserve">
<rect x="29" y="7" width="6" height="50"/>
<path d="M32,25.05C19.605,25.05,9.522,17,9.522,7h6c0,6,7.392,12.05,16.478,12.05S48.478,13,48.478,7h6
	C54.478,17,44.394,25.05,32,25.05z"/>
<path d="M54.478,57h-6c0-7-7.393-12.051-16.479-12.051S15.522,50,15.522,57h-6c0-10,10.083-18.051,22.478-18.051
	S54.478,47,54.478,57z"/>
<rect x="9" y="29" width="46" height="6"/>
</svg>
