<?xml version="1.0" encoding="utf-8"?>
<!-- Generator: Adobe Illustrator 17.0.0, SVG Export Plug-In . SVG Version: 6.00 Build 0)  -->
<!DOCTYPE svg PUBLIC "-//W3C//DTD SVG 1.1//EN" "http://www.w3.org/Graphics/SVG/1.1/DTD/svg11.dtd">
<svg version="1.1" id="Calque_1" xmlns="http://www.w3.org/2000/svg" xmlns:xlink="http://www.w3.org/1999/xlink" x="0px" y="0px"
	 width="64px" height="64px" viewBox="0 0 64 64" enable-background="new 0 0 64 64" xml:space="preserve">
<path d="M32,62c-6.893,0-12.5-5.608-12.5-12.5S25.107,37,32,37c6.892,0,12.5,5.608,12.5,12.5S38.892,62,32,62z M32,43.547
	c-3.12,0-5.659,2.67-5.659,5.953S28.88,55.453,32,55.453s5.658-2.67,5.658-5.953S35.12,43.547,32,43.547z"/>
<path d="M32,27c-6.893,0-12.5-5.608-12.5-12.5S25.107,2,32,2c6.892,0,12.5,5.608,12.5,12.5S38.892,27,32,27z M32,8.547
	c-3.12,0-5.659,2.67-5.659,5.953S28.88,20.453,32,20.453s5.658-2.67,5.658-5.953S35.12,8.547,32,8.547z"/>
<rect x="6" y="29" width="53" height="6"/>
</svg>
